<svg xmlns="http://www.w3.org/2000/svg" xmlns:xlink="http://www.w3.org/1999/xlink" xmlns:inkscape="http://www.inkscape.org/namespaces/inkscape" version="1.1" width="375" height="375" viewBox="0 0 375 375">
<defs>
<clipPath id="clip_0">
<path d="M152.66178 143.39891 195.4901 129.58823 202.62561 151.71619 159.7973 165.52687 152.66178 143.39891Z"/>
</clipPath>
</defs>
<path transform="matrix(.75,0,0,.75,0,0)" d="M0 0H500V500H0Z"/>
<path transform="matrix(.060827,0,0,.060827,64.42141,192.03298)" d="M7-151C41-26 200 10 304 10 429 10 604-34 604-193 604-352 454-358 315-371 217-378 133-386 133-451 133-521 241-540 295-540 356-540 446-532 470-470 478-452 499-442 521-442 555-442 589-470 578-507 531-617 398-647 294-647 169-647 13-589 13-452 13-300 168-281 304-270 393-263 484-255 484-192 484-113 374-95 304-95 237-95 145-110 123-175 118-201 94-214 68-214 33-214-3-190 7-151Z" fill="#c1ff72"/>
<text fill-opacity="0" xml:space="preserve" transform="matrix(.6336806 0 0 .6336806 54.65531 134.7992)" font-size="95.99" font-family="Unnamed"><tspan y="90.31961" x="15.411709">S</tspan></text>
<path transform="matrix(.060827,0,0,.060827,105.47739,192.03298)" d="M173-177H317C485-177 583-267 583-402 583-543 486-637 320-637H116C84-637 58-616 58-585V-50C58-17 86 0 115 0 143 0 173-16 173-51V-177ZM173-538H321C416-538 469-484 469-402 469-326 415-276 317-276H173V-538Z" fill="#c1ff72"/>
<text fill-opacity="0" xml:space="preserve" transform="matrix(.6336806 0 0 .6336806 54.65531 134.7992)" font-size="95.99" font-family="Unnamed"><tspan y="90.31961" x="80.201419">P</tspan></text>
<path transform="matrix(.060827,0,0,.060827,146.16843,192.03298)" d="M117 0H502C541 0 562-24 562-50 562-74 541-100 502-100H174V-586C174-620 144-637 116-637 86-637 57-620 57-586V-54C57-19 74 0 117 0Z" fill="#c1ff72"/>
<text fill-opacity="0" xml:space="preserve" transform="matrix(.6336806 0 0 .6336806 54.65531 134.7992)" font-size="95.99" font-family="Unnamed"><tspan y="90.31961" x="144.41522">L</tspan></text>
<path transform="matrix(.060827,0,0,.060827,182.96677,192.03298)" d="M521-100H172V-266H503C538-266 555-290 555-314 555-339 537-364 503-364H172V-539H521C555-539 574-565 574-589 574-614 557-637 521-637H124C84-637 58-610 58-578V-60C58-27 84 0 124 0H521C558 0 576-24 576-48 576-73 556-100 521-100Z" fill="#c1ff72"/>
<text fill-opacity="0" xml:space="preserve" transform="matrix(.6336806 0 0 .6336806 54.65531 134.7992)" font-size="95.99" font-family="Unnamed"><tspan y="90.31961" x="202.48603">E</tspan></text>
<path transform="matrix(.060827,0,0,.060827,223.59699,192.03298)" d="M542-584V-281C542-170 468-95 357-95 248-95 175-170 175-281V-586C175-621 145-637 115-637 85-637 57-620 57-587V-281C57-107 177 10 358 10 539 10 659-107 659-281V-585C659-620 631-637 601-637 571-637 542-620 542-584Z" fill="#c1ff72"/>
<text fill-opacity="0" xml:space="preserve" transform="matrix(.6336806 0 0 .6336806 54.65531 134.7992)" font-size="95.99" font-family="Unnamed"><tspan y="90.31961" x="266.60386">U</tspan></text>
<path transform="matrix(.060827,0,0,.060827,271.52604,192.03298)" d="M588-87 374-325 581-553C615-590 578-637 539-637 523-637 507-631 496-618L303-407 111-620C99-633 84-637 68-637 30-637-8-589 23-555L231-323 17-88C6-76 1-62 1-50 1-23 27 0 56 0 72 0 89-6 102-21L301-241 499-21C513-5 531 0 549 0 579 0 604-22 604-49 604-61 599-73 588-87Z" fill="#c1ff72"/>
<text fill-opacity="0" xml:space="preserve" transform="matrix(.6336806 0 0 .6336806 54.65531 134.7992)" font-size="95.99" font-family="Unnamed"><tspan y="90.31961" x="342.2398">X</tspan></text>
<g clip-path="url(#clip_0)">
<path transform="matrix(.51135608,-.16489512,.164413,.50986096,137.0811,126.80862)" d="M99.7 39.9 76.2 38.5C74.8 38.4 74 40 74.9 41.1L80.8 48.4C81.4 49.099996 81.2 50.1 80.6 50.6L63.3 64.4C62.6 64.9 61.699998 64.9 61.099996 64.2L53.8 55.8 51.6 53.3C51 52.6 50 52.6 49.4 53.099996L47.099996 55 19.4 78.8C18.8 79.3 18.7 80.2 19.1 80.9 19.6 81.6 20.5 81.8 21.2 81.4L47.8 66.2C48.5 65.8 49.3 66 49.8 66.5L57.8 75.6 60 78.1C60.6 78.7 61.5 78.8 62.2 78.3L64.8 76.2 86.9 58.300004C87.6 57.699998 88.600009 57.9 89.1 58.5L95 65.8C95.90001 66.9 97.6 66.4 97.80001 65L101.299999 41.7C101.299999 40.8 100.600009 39.9 99.7 39.9Z" fill="#ffffff"/>
</g>
<path transform="matrix(1,0,0,-1,0,375)" d="M152.66176 209.292H202.90827V245.48409H152.66176Z" fill-opacity="0"/>
</svg>
